<svg width="24" height="25" viewBox="0 0 24 25" fill="none" xmlns="http://www.w3.org/2000/svg">
<path d="M7.87999 12.57C7.87999 12.16 8.21999 11.82 8.62999 11.82H14.11V3.36C14.1 2.88 13.72 2.5 13.24 2.5C7.34999 2.5 3.23999 6.61 3.23999 12.5C3.23999 18.39 7.34999 22.5 13.24 22.5C13.71 22.5 14.1 22.12 14.1 21.64V13.31H8.62999C8.20999 13.32 7.87999 12.98 7.87999 12.57Z" fill="#1E2029"/>
<path d="M20.54 12.0399L17.7 9.18991C17.41 8.89991 16.93 8.89991 16.64 9.18991C16.35 9.47991 16.35 9.95991 16.64 10.2499L18.2 11.8099H14.1V13.3099H18.19L16.63 14.8699C16.34 15.1599 16.34 15.6399 16.63 15.9299C16.78 16.0799 16.97 16.1499 17.16 16.1499C17.35 16.1499 17.54 16.0799 17.69 15.9299L20.53 13.0799C20.83 12.7999 20.83 12.3299 20.54 12.0399Z" fill="#1E2029"/>
</svg>
