<svg width="174" height="40" viewBox="0 0 174 40" fill="none" xmlns="http://www.w3.org/2000/svg">
<path d="M165.602 20.1181C164.069 20.1181 162.725 19.8168 161.571 19.2142C160.434 18.5944 159.546 17.7508 158.909 16.6833C158.289 15.6158 157.979 14.402 157.979 13.0419C157.979 11.6645 158.28 10.4507 158.883 9.40045C159.503 8.33298 160.347 7.49795 161.416 6.89536C162.501 6.29276 163.733 5.99146 165.111 5.99146C166.455 5.99146 167.652 6.28415 168.703 6.86953C169.754 7.45491 170.581 8.28133 171.184 9.3488C171.787 10.4163 172.088 11.6731 172.088 13.1193C172.088 13.2571 172.079 13.412 172.062 13.5842C172.062 13.7564 172.054 13.9199 172.036 14.0749H160.537V11.9314H170.331L169.065 12.6028C169.082 11.8108 168.918 11.1136 168.574 10.511C168.229 9.90835 167.755 9.43488 167.152 9.09054C166.567 8.7462 165.886 8.57402 165.111 8.57402C164.318 8.57402 163.621 8.7462 163.018 9.09054C162.432 9.43488 161.967 9.91696 161.622 10.5368C161.295 11.1394 161.131 11.8539 161.131 12.6803V13.1968C161.131 14.0232 161.321 14.755 161.7 15.392C162.079 16.029 162.613 16.5197 163.302 16.8641C163.991 17.2084 164.784 17.3806 165.679 17.3806C166.455 17.3806 167.152 17.2601 167.773 17.019C168.393 16.778 168.944 16.3992 169.426 15.8827L171.158 17.8713C170.538 18.5944 169.754 19.154 168.806 19.5499C167.876 19.9287 166.808 20.1181 165.602 20.1181Z" fill="#131313"/>
<path d="M150.633 20.1181C149.186 20.1181 147.894 19.8168 146.757 19.2142C145.637 18.5944 144.759 17.7508 144.121 16.6833C143.484 15.6158 143.165 14.402 143.165 13.0419C143.165 11.6645 143.484 10.4507 144.121 9.40045C144.759 8.33298 145.637 7.49795 146.757 6.89536C147.894 6.29276 149.186 5.99146 150.633 5.99146C151.977 5.99146 153.157 6.26693 154.174 6.81788C155.207 7.35161 155.991 8.1436 156.525 9.19384L154.044 10.6401C153.631 9.98583 153.123 9.50375 152.52 9.19384C151.934 8.88393 151.297 8.72898 150.608 8.72898C149.815 8.72898 149.1 8.90115 148.463 9.24549C147.825 9.58984 147.326 10.0891 146.964 10.7434C146.602 11.3804 146.421 12.1466 146.421 13.0419C146.421 13.9372 146.602 14.7119 146.964 15.3662C147.326 16.0032 147.825 16.4939 148.463 16.8382C149.1 17.1826 149.815 17.3548 150.608 17.3548C151.297 17.3548 151.934 17.1998 152.52 16.8899C153.123 16.58 153.631 16.0979 154.044 15.4437L156.525 16.8899C155.991 17.9229 155.207 18.7235 154.174 19.2917C153.157 19.8426 151.977 20.1181 150.633 20.1181Z" fill="#131313"/>
<path d="M134.417 5.99146C135.519 5.99146 136.501 6.20667 137.363 6.6371C138.241 7.06753 138.93 7.73039 139.43 8.62568C139.929 9.50375 140.179 10.6401 140.179 12.0347V19.9373H136.949V12.4479C136.949 11.2255 136.656 10.313 136.07 9.71036C135.502 9.10776 134.701 8.80646 133.667 8.80646C132.909 8.80646 132.237 8.96141 131.652 9.27132C131.066 9.58123 130.609 10.0461 130.282 10.6659C129.972 11.2685 129.817 12.0347 129.817 12.9644V19.9373H126.587V6.14641H129.662V9.86531L129.119 8.72898C129.602 7.85091 130.299 7.17944 131.212 6.71457C132.143 6.23249 133.211 5.99146 134.417 5.99146Z" fill="#131313"/>
<path d="M119.392 19.9373V17.1482L119.211 16.5542V11.6731C119.211 10.7262 118.927 9.99444 118.358 9.47792C117.79 8.94419 116.928 8.67733 115.774 8.67733C114.999 8.67733 114.232 8.79785 113.474 9.03889C112.733 9.27993 112.105 9.61566 111.588 10.0461L110.322 7.69595C111.062 7.12779 111.941 6.70597 112.957 6.43049C113.991 6.1378 115.059 5.99146 116.162 5.99146C118.16 5.99146 119.702 6.47353 120.787 7.43769C121.89 8.38464 122.441 9.8567 122.441 11.8539V19.9373H119.392ZM115.051 20.1181C114.017 20.1181 113.112 19.9459 112.337 19.6016C111.562 19.24 110.959 18.7494 110.528 18.1295C110.115 17.4925 109.908 16.778 109.908 15.986C109.908 15.2112 110.089 14.5139 110.451 13.8941C110.83 13.2743 111.441 12.7836 112.285 12.4221C113.13 12.0605 114.249 11.8797 115.645 11.8797H119.65V14.0232H115.877C114.775 14.0232 114.034 14.204 113.655 14.5656C113.276 14.9099 113.087 15.3404 113.087 15.8569C113.087 16.4423 113.319 16.9071 113.784 17.2515C114.249 17.5958 114.895 17.768 115.722 17.768C116.515 17.768 117.221 17.5872 117.841 17.2256C118.479 16.8641 118.935 16.3303 119.211 15.6244L119.754 17.5614C119.444 18.3706 118.884 18.999 118.074 19.4466C117.282 19.8943 116.274 20.1181 115.051 20.1181Z" fill="#131313"/>
<path d="M101.03 5.99146C102.132 5.99146 103.114 6.20667 103.976 6.6371C104.854 7.06753 105.543 7.73039 106.043 8.62568C106.542 9.50375 106.792 10.6401 106.792 12.0347V19.9373H103.562V12.4479C103.562 11.2255 103.269 10.313 102.684 9.71036C102.115 9.10776 101.314 8.80646 100.28 8.80646C99.5222 8.80646 98.8504 8.96141 98.2646 9.27132C97.6789 9.58123 97.2224 10.0461 96.895 10.6659C96.5849 11.2685 96.4299 12.0347 96.4299 12.9644V19.9373H93.1997V6.14641H96.2748V9.86531L95.7322 8.72898C96.2145 7.85091 96.9123 7.17944 97.8253 6.71457C98.7556 6.23249 99.8237 5.99146 101.03 5.99146Z" fill="#131313"/>
<path d="M85.73 19.9374V6.14652H88.9601V19.9374H85.73ZM87.358 3.87385C86.755 3.87385 86.2554 3.68447 85.8592 3.30569C85.4802 2.92691 85.2906 2.47066 85.2906 1.93693C85.2906 1.38598 85.4802 0.929725 85.8592 0.568164C86.2554 0.189388 86.755 0 87.358 0C87.9609 0 88.4519 0.18078 88.8309 0.542339C89.2272 0.886682 89.4253 1.32572 89.4253 1.85945C89.4253 2.42761 89.2358 2.90969 88.8568 3.30569C88.4778 3.68447 87.9782 3.87385 87.358 3.87385Z" fill="#131313"/>
<path d="M72.6616 10.1753H81.6802V13.0161H72.6616V10.1753ZM72.9458 19.9374H69.5864V1.85938H82.7914V4.67438H72.9458V19.9374Z" fill="#131313"/>
<path d="M121.441 38.2103V27.3145H122.852V38.2103H121.441Z" fill="#131313"/>
<path d="M115.45 38.2985C114.666 38.2985 113.971 38.1272 113.363 37.7846C112.756 37.4419 112.276 36.972 111.923 36.3749C111.571 35.7679 111.394 35.0826 111.394 34.319C111.394 33.5457 111.571 32.8604 111.923 32.2632C112.276 31.6661 112.756 31.201 113.363 30.8682C113.971 30.5256 114.666 30.3542 115.45 30.3542C116.223 30.3542 116.914 30.5256 117.521 30.8682C118.139 31.201 118.619 31.6661 118.961 32.2632C119.314 32.8506 119.49 33.5359 119.49 34.319C119.49 35.0924 119.314 35.7777 118.961 36.3749C118.619 36.972 118.139 37.4419 117.521 37.7846C116.914 38.1272 116.223 38.2985 115.45 38.2985ZM115.45 37.065C115.949 37.065 116.395 36.9524 116.787 36.7273C117.188 36.5021 117.502 36.184 117.727 35.7728C117.952 35.3518 118.065 34.8673 118.065 34.319C118.065 33.761 117.952 33.2813 117.727 32.88C117.502 32.4688 117.188 32.1506 116.787 31.9255C116.395 31.7003 115.949 31.5877 115.45 31.5877C114.95 31.5877 114.504 31.7003 114.113 31.9255C113.721 32.1506 113.407 32.4688 113.172 32.88C112.937 33.2813 112.82 33.761 112.82 34.319C112.82 34.8673 112.937 35.3518 113.172 35.7728C113.407 36.184 113.721 36.5021 114.113 36.7273C114.504 36.9524 114.95 37.065 115.45 37.065Z" fill="#131313"/>
<path d="M106.26 38.2104V30.4277H107.612V32.5422L107.48 32.0136C107.695 31.4752 108.058 31.064 108.567 30.7801C109.076 30.4962 109.703 30.3542 110.448 30.3542V31.7199C110.389 31.7101 110.33 31.7052 110.271 31.7052C110.222 31.7052 110.173 31.7052 110.124 31.7052C109.37 31.7052 108.773 31.9304 108.332 32.3807C107.891 32.831 107.671 33.482 107.671 34.3337V38.2104H106.26Z" fill="#131313"/>
<path d="M102.851 38.2984C102.067 38.2984 101.46 38.0879 101.029 37.6669C100.598 37.246 100.382 36.6439 100.382 35.8607V28.7241H101.793V35.802C101.793 36.223 101.896 36.546 102.101 36.7712C102.317 36.9963 102.621 37.1089 103.012 37.1089C103.453 37.1089 103.82 36.9865 104.114 36.7418L104.555 37.755C104.34 37.941 104.08 38.0781 103.776 38.1662C103.483 38.2543 103.174 38.2984 102.851 38.2984ZM99.0598 31.5876V30.4275H104.026V31.5876H99.0598Z" fill="#131313"/>
<path d="M94.3331 30.3542C94.9699 30.3542 95.5282 30.4766 96.0082 30.7214C96.498 30.9661 96.88 31.3381 97.1543 31.8374C97.4285 32.3366 97.5657 32.9681 97.5657 33.7317V38.2104H96.1551V33.8932C96.1551 33.1394 95.969 32.5716 95.5968 32.1898C95.2343 31.808 94.7201 31.6171 94.054 31.6171C93.5544 31.6171 93.1185 31.715 92.7463 31.9108C92.374 32.1066 92.0851 32.3954 91.8794 32.7772C91.6834 33.159 91.5855 33.6338 91.5855 34.2016V38.2104H90.1749V30.4277H91.5267V32.5275L91.3063 31.9695C91.561 31.4605 91.9528 31.064 92.4818 30.7801C93.0107 30.4962 93.6279 30.3542 94.3331 30.3542Z" fill="#131313"/>
<path d="M84.1833 38.2985C83.3996 38.2985 82.7042 38.1272 82.0968 37.7846C81.4895 37.4419 81.0095 36.972 80.6569 36.3749C80.3043 35.7679 80.1279 35.0826 80.1279 34.319C80.1279 33.5457 80.3043 32.8604 80.6569 32.2632C81.0095 31.6661 81.4895 31.201 82.0968 30.8682C82.7042 30.5256 83.3996 30.3542 84.1833 30.3542C84.9571 30.3542 85.6477 30.5256 86.2551 30.8682C86.8722 31.201 87.3522 31.6661 87.695 32.2632C88.0476 32.8506 88.224 33.5359 88.224 34.319C88.224 35.0924 88.0476 35.7777 87.695 36.3749C87.3522 36.972 86.8722 37.4419 86.2551 37.7846C85.6477 38.1272 84.9571 38.2985 84.1833 38.2985ZM84.1833 37.065C84.6829 37.065 85.1286 36.9524 85.5204 36.7273C85.922 36.5021 86.2355 36.184 86.4608 35.7728C86.6861 35.3518 86.7987 34.8673 86.7987 34.319C86.7987 33.761 86.6861 33.2813 86.4608 32.88C86.2355 32.4688 85.922 32.1506 85.5204 31.9255C85.1286 31.7003 84.6829 31.5877 84.1833 31.5877C83.6837 31.5877 83.238 31.7003 82.8462 31.9255C82.4544 32.1506 82.1409 32.4688 81.9058 32.88C81.6707 33.2813 81.5532 33.761 81.5532 34.319C81.5532 34.8673 81.6707 35.3518 81.9058 35.7728C82.1409 36.184 82.4544 36.5021 82.8462 36.7273C83.238 36.9524 83.6837 37.065 84.1833 37.065Z" fill="#131313"/>
<path d="M75.3646 38.3278C74.581 38.3278 73.8561 38.2005 73.19 37.946C72.5337 37.6816 71.9607 37.3145 71.4709 36.8446C70.9909 36.3649 70.6138 35.8069 70.3395 35.1706C70.0652 34.5343 69.9281 33.8343 69.9281 33.0707C69.9281 32.3071 70.0652 31.6072 70.3395 30.9709C70.6138 30.3345 70.9958 29.7814 71.4856 29.3115C71.9754 28.8318 72.5484 28.4647 73.2047 28.2102C73.8708 27.9459 74.5957 27.8137 75.3793 27.8137C76.1728 27.8137 76.9025 27.9508 77.5686 28.2249C78.2445 28.4892 78.8176 28.8857 79.2878 29.4143L78.3327 30.3394C77.9409 29.9283 77.5001 29.6248 77.0103 29.429C76.5205 29.2234 75.9965 29.1206 75.4381 29.1206C74.8602 29.1206 74.3214 29.2185 73.8218 29.4143C73.3321 29.6101 72.906 29.8842 72.5435 30.2366C72.1811 30.5891 71.897 31.01 71.6913 31.4995C71.4954 31.9792 71.3974 32.5029 71.3974 33.0707C71.3974 33.6385 71.4954 34.1672 71.6913 34.6567C71.897 35.1363 72.1811 35.5524 72.5435 35.9048C72.906 36.2573 73.3321 36.5314 73.8218 36.7272C74.3214 36.9229 74.8602 37.0208 75.4381 37.0208C75.9965 37.0208 76.5205 36.9229 77.0103 36.7272C77.5001 36.5216 77.9409 36.2083 78.3327 35.7874L79.2878 36.7125C78.8176 37.2411 78.2445 37.6425 77.5686 37.9166C76.9025 38.1907 76.1679 38.3278 75.3646 38.3278Z" fill="#131313"/>
<path d="M20.0746 40.0001C20.0746 32.948 26.4373 27.2332 34.2887 27.2332H54.7488C54.7488 34.2852 48.3861 40.0001 40.5347 40.0001H20.0746Z" fill="#0047AF"/>
<path d="M17.8189 19.9377H0C0 9.86334 9.17672 1.69922 20.5006 1.69922H60.2237C60.2237 11.7736 51.047 19.9377 39.7231 19.9377H17.8189Z" fill="#0047AF"/>
</svg>
